<svg width="29" height="29" viewBox="0 0 29 29" fill="none" xmlns="http://www.w3.org/2000/svg">
<path fill-rule="evenodd" clip-rule="evenodd" d="M19.7967 28.9953V17.824H23.5469L24.108 13.4709H19.7952V10.6914C19.7952 9.43081 20.1457 8.57115 21.9545 8.57115H24.2594V4.67672C23.1431 4.55793 22.0212 4.50015 20.8987 4.50363C17.5754 4.50363 15.3008 6.53306 15.3008 10.2587V13.4709H11.539V17.824H15.2993V28.9953H1.59239C0.712536 28.9953 0 28.2827 0 27.4029V1.74003C0 0.86018 0.712536 0.147644 1.59239 0.147644H27.2552C28.1351 0.147644 28.8476 0.86018 28.8476 1.74003V27.4029C28.8476 28.2827 28.1351 28.9953 27.2552 28.9953H19.7967Z" fill="#000120"/>
</svg>
