<svg width="29" height="29" viewBox="0 0 29 29" fill="none" xmlns="http://www.w3.org/2000/svg">
<rect x="0.0378418" y="0.147644" width="28.8476" height="28.8476" rx="2.85714" fill="#000120"/>
<path fill-rule="evenodd" clip-rule="evenodd" d="M10.3454 4.64561C11.4103 4.59659 11.7498 4.58569 14.4623 4.58569C17.1748 4.58569 17.5143 4.59749 18.5782 4.64561C19.6421 4.69372 20.3684 4.86348 21.0038 5.10949C21.6692 5.36095 22.2729 5.75402 22.7722 6.26239C23.2806 6.76076 23.6727 7.36354 23.9233 8.02986C24.1702 8.66531 24.3391 9.39155 24.3881 10.4537C24.4371 11.5203 24.448 11.8598 24.448 14.5714C24.448 17.2839 24.4362 17.6234 24.3881 18.6882C24.34 19.7504 24.1702 20.4766 23.9233 21.112C23.6727 21.7785 23.2799 22.3822 22.7722 22.8813C22.2729 23.3897 21.6692 23.7819 21.0038 24.0324C20.3684 24.2793 19.6421 24.4482 18.58 24.4972C17.5143 24.5462 17.1748 24.5571 14.4623 24.5571C11.7498 24.5571 11.4103 24.5453 10.3454 24.4972C9.28332 24.4491 8.55709 24.2793 7.92163 24.0324C7.25524 23.7818 6.65147 23.389 6.15235 22.8813C5.64433 22.3827 5.25119 21.7792 5.00036 21.113C4.75435 20.4775 4.5855 19.7513 4.53648 18.6892C4.48746 17.6225 4.47656 17.283 4.47656 14.5714C4.47656 11.8589 4.48836 11.5194 4.53648 10.4555C4.58459 9.39155 4.75435 8.66531 5.00036 8.02986C5.25157 7.36361 5.645 6.76014 6.15325 6.26148C6.65167 5.75357 7.25484 5.36044 7.92073 5.10949C8.55618 4.86348 9.28332 4.69463 10.3454 4.64561ZM18.4965 6.44304C17.4435 6.39492 17.1276 6.38494 14.4614 6.38494C11.7952 6.38494 11.4793 6.39492 10.4262 6.44304C9.45217 6.48752 8.92384 6.65001 8.57161 6.78709C8.10592 6.96865 7.77276 7.18379 7.42326 7.53329C7.09195 7.85561 6.83699 8.24798 6.67705 8.68165C6.53997 9.03387 6.37748 9.56221 6.333 10.5363C6.28488 11.5893 6.2749 11.9052 6.2749 14.5714C6.2749 17.2376 6.28488 17.5535 6.333 18.6065C6.37748 19.5806 6.53997 20.1089 6.67705 20.4612C6.83682 20.8942 7.09191 21.2873 7.42326 21.6095C7.74552 21.9409 8.1386 22.196 8.57161 22.3557C8.92384 22.4928 9.45217 22.6553 10.4262 22.6998C11.4793 22.7479 11.7943 22.7579 14.4614 22.7579C17.1285 22.7579 17.4435 22.7479 18.4965 22.6998C19.4706 22.6553 19.9989 22.4928 20.3511 22.3557C20.8168 22.1742 21.15 21.959 21.4995 21.6095C21.8308 21.2873 22.0859 20.8942 22.2457 20.4612C22.3828 20.1089 22.5453 19.5806 22.5897 18.6065C22.6379 17.5535 22.6478 17.2376 22.6478 14.5714C22.6478 11.9052 22.6379 11.5893 22.5897 10.5363C22.5453 9.56221 22.3828 9.03387 22.2457 8.68165C22.0641 8.21595 21.849 7.88279 21.4995 7.53329C21.1771 7.20202 20.7848 6.94705 20.3511 6.78709C19.9989 6.65001 19.4706 6.48752 18.4965 6.44304ZM13.1859 17.6497C13.8982 17.9462 14.6914 17.9863 15.4299 17.763C16.1685 17.5396 16.8066 17.0669 17.2352 16.4253C17.6639 15.7838 17.8566 15.0134 17.7803 14.2456C17.704 13.4778 17.3636 12.7603 16.8171 12.2157C16.4687 11.8675 16.0475 11.6009 15.5837 11.4351C15.1199 11.2693 14.6252 11.2084 14.135 11.2567C13.6449 11.3051 13.1715 11.4615 12.7491 11.7147C12.3267 11.9679 11.9656 12.3117 11.692 12.7212C11.4183 13.1307 11.2389 13.5958 11.1666 14.083C11.0942 14.5702 11.1308 15.0673 11.2737 15.5387C11.4166 16.01 11.6622 16.4438 11.9928 16.8089C12.3235 17.1739 12.731 17.4611 13.1859 17.6497ZM10.8329 10.9421C11.3095 10.4654 11.8754 10.0874 12.4981 9.82943C13.1208 9.57149 13.7882 9.43873 14.4623 9.43873C15.1363 9.43873 15.8037 9.57149 16.4265 9.82943C17.0492 10.0874 17.615 10.4654 18.0916 10.9421C18.5682 11.4187 18.9463 11.9845 19.2043 12.6072C19.4622 13.2299 19.595 13.8974 19.595 14.5714C19.595 15.2454 19.4622 15.9129 19.2043 16.5356C18.9463 17.1583 18.5682 17.7241 18.0916 18.2008C17.1291 19.1633 15.8235 19.7041 14.4623 19.7041C13.101 19.7041 11.7955 19.1633 10.8329 18.2008C9.87036 17.2382 9.3296 15.9327 9.3296 14.5714C9.3296 13.2101 9.87036 11.9046 10.8329 10.9421ZM20.7333 10.2031C20.8514 10.0917 20.946 9.95772 21.0114 9.80911C21.0768 9.66049 21.1117 9.50027 21.114 9.33792C21.1164 9.17557 21.0862 9.0144 21.0251 8.86395C20.9641 8.71349 20.8735 8.57681 20.7587 8.462C20.6439 8.34719 20.5072 8.25658 20.3567 8.19554C20.2063 8.13451 20.0451 8.10427 19.8828 8.10664C19.7204 8.10901 19.5602 8.14392 19.4116 8.20932C19.263 8.27472 19.129 8.36928 19.0176 8.48738C18.8009 8.71708 18.6823 9.02218 18.6869 9.33792C18.6915 9.65366 18.8189 9.95517 19.0422 10.1785C19.2655 10.4017 19.567 10.5292 19.8828 10.5338C20.1985 10.5384 20.5036 10.4198 20.7333 10.2031Z" fill="white"/>
</svg>
