<svg width="29" height="29" viewBox="0 0 29 29" fill="none" xmlns="http://www.w3.org/2000/svg">
<path d="M0.114502 2.21385C0.114502 1.07257 1.06287 0.147644 2.233 0.147644H26.8436C28.0138 0.147644 28.9621 1.07257 28.9621 2.21385V26.9291C28.9621 28.0703 28.0138 28.9953 26.8436 28.9953H2.233C1.06287 28.9953 0.114502 28.0703 0.114502 26.9291V2.21385ZM9.02661 24.2967V11.2702H4.69767V24.2967H9.02661ZM6.86304 9.49067C8.37213 9.49067 9.31148 8.49182 9.31148 7.24055C9.28444 5.96224 8.37394 4.99044 6.89189 4.99044C5.40984 4.99044 4.44164 5.96405 4.44164 7.24055C4.44164 8.49182 5.381 9.49067 6.83419 9.49067H6.86304ZM15.712 24.2967V17.0217C15.712 16.6323 15.7409 16.2428 15.8563 15.9652C16.1682 15.1881 16.8804 14.3821 18.0776 14.3821C19.6443 14.3821 20.27 15.5757 20.27 17.3282V24.2967H24.5989V16.8252C24.5989 12.8226 22.4642 10.9619 19.6155 10.9619C17.3185 10.9619 16.289 12.224 15.712 13.1128V13.1579H15.6832L15.712 13.1128V11.2702H11.3849C11.439 12.4926 11.3849 24.2967 11.3849 24.2967H15.712Z" fill="#000120"/>
</svg>
