<svg width="143" height="60" viewBox="0 0 143 60" fill="none" xmlns="http://www.w3.org/2000/svg">
<g style="mix-blend-mode:luminosity" opacity="0.5">
<rect y="56.3916" width="4.47702" height="4.47702" transform="rotate(-45 0 56.3916)" fill="#D9D9D9"/>
<rect y="38.9338" width="4.47702" height="4.47702" transform="rotate(-45 0 38.9338)" fill="#D9D9D9"/>
<rect y="21.4761" width="4.47702" height="4.47702" transform="rotate(-45 0 21.4761)" fill="#D9D9D9"/>
<rect y="4.01831" width="4.47702" height="4.47702" transform="rotate(-45 0 4.01831)" fill="#D9D9D9"/>
<rect x="19.5244" y="56.3916" width="4.47702" height="4.47702" transform="rotate(-45 19.5244 56.3916)" fill="#D9D9D9"/>
<rect x="19.5244" y="38.934" width="4.47702" height="4.47702" transform="rotate(-45 19.5244 38.934)" fill="#D9D9D9"/>
<rect x="19.5244" y="21.4761" width="4.47702" height="4.47702" transform="rotate(-45 19.5244 21.4761)" fill="#D9D9D9"/>
<rect x="19.5244" y="4.01831" width="4.47702" height="4.47702" transform="rotate(-45 19.5244 4.01831)" fill="#D9D9D9"/>
<rect x="39.0481" y="56.3916" width="4.47702" height="4.47702" transform="rotate(-45 39.0481 56.3916)" fill="#D9D9D9"/>
<rect x="39.0481" y="38.934" width="4.47702" height="4.47702" transform="rotate(-45 39.0481 38.934)" fill="#D9D9D9"/>
<rect x="39.0481" y="21.4761" width="4.47702" height="4.47702" transform="rotate(-45 39.0481 21.4761)" fill="#D9D9D9"/>
<rect x="39.0481" y="4.01831" width="4.47702" height="4.47702" transform="rotate(-45 39.0481 4.01831)" fill="#D9D9D9"/>
<rect x="58.5723" y="56.3916" width="4.47702" height="4.47702" transform="rotate(-45 58.5723 56.3916)" fill="#D9D9D9"/>
<rect x="58.5723" y="38.934" width="4.47702" height="4.47702" transform="rotate(-45 58.5723 38.934)" fill="#D9D9D9"/>
<rect x="58.5723" y="21.4761" width="4.47702" height="4.47702" transform="rotate(-45 58.5723 21.4761)" fill="#D9D9D9"/>
<rect x="58.5723" y="4.01831" width="4.47702" height="4.47702" transform="rotate(-45 58.5723 4.01831)" fill="#D9D9D9"/>
<rect x="78.0959" y="56.3916" width="4.47702" height="4.47702" transform="rotate(-45 78.0959 56.3916)" fill="#D9D9D9"/>
<rect x="78.0959" y="38.934" width="4.47702" height="4.47702" transform="rotate(-45 78.0959 38.934)" fill="#D9D9D9"/>
<rect x="78.0959" y="21.4761" width="4.47702" height="4.47702" transform="rotate(-45 78.0959 21.4761)" fill="#D9D9D9"/>
<rect x="78.0959" y="4.01831" width="4.47702" height="4.47702" transform="rotate(-45 78.0959 4.01831)" fill="#D9D9D9"/>
<rect x="97.6204" y="56.3916" width="4.47702" height="4.47702" transform="rotate(-45 97.6204 56.3916)" fill="#D9D9D9"/>
<rect x="97.6204" y="38.934" width="4.47702" height="4.47702" transform="rotate(-45 97.6204 38.934)" fill="#D9D9D9"/>
<rect x="97.6204" y="21.4761" width="4.47702" height="4.47702" transform="rotate(-45 97.6204 21.4761)" fill="#D9D9D9"/>
<rect x="97.6204" y="4.01831" width="4.47702" height="4.47702" transform="rotate(-45 97.6204 4.01831)" fill="#D9D9D9"/>
<rect x="117.144" y="56.3916" width="4.47702" height="4.47702" transform="rotate(-45 117.144 56.3916)" fill="#D9D9D9"/>
<rect x="117.144" y="38.9338" width="4.47702" height="4.47702" transform="rotate(-45 117.144 38.9338)" fill="#D9D9D9"/>
<rect x="117.144" y="21.4761" width="4.47702" height="4.47702" transform="rotate(-45 117.144 21.4761)" fill="#D9D9D9"/>
<rect x="117.144" y="4.01831" width="4.47702" height="4.47702" transform="rotate(-45 117.144 4.01831)" fill="#D9D9D9"/>
<rect x="136.668" y="56.3916" width="4.47702" height="4.47702" transform="rotate(-45 136.668 56.3916)" fill="#D9D9D9"/>
<rect x="136.668" y="38.9338" width="4.47702" height="4.47702" transform="rotate(-45 136.668 38.9338)" fill="#D9D9D9"/>
<rect x="136.668" y="21.4761" width="4.47702" height="4.47702" transform="rotate(-45 136.668 21.4761)" fill="#D9D9D9"/>
<rect x="136.668" y="4.01831" width="4.47702" height="4.47702" transform="rotate(-45 136.668 4.01831)" fill="#D9D9D9"/>
</g>
</svg>
