<svg width="29" height="29" viewBox="0 0 29 29" fill="none" xmlns="http://www.w3.org/2000/svg">
<path d="M18.3882 20.3345C18.562 20.5084 18.562 20.7724 18.3882 20.9269C16.8106 22.5045 12.3482 22.511 10.7641 20.9269C10.5903 20.7724 10.5903 20.5084 10.7641 20.3345C10.9187 20.18 11.1827 20.18 11.3372 20.3345C12.5414 21.5709 16.553 21.5966 17.8086 20.3345C17.9632 20.1864 18.2336 20.1864 18.3882 20.3345ZM12.5092 16.8702C12.5092 15.9108 11.7429 15.1445 10.8028 15.1445C9.84334 15.1445 9.07708 15.9108 9.07708 16.8702C9.07708 17.8104 9.84334 18.5766 10.8028 18.5766C11.7429 18.5766 12.5092 17.8104 12.5092 16.8702ZM18.3495 15.1445C17.4094 15.1445 16.6431 15.9108 16.6431 16.8702C16.6431 17.8104 17.4094 18.5766 18.3495 18.5766C19.309 18.5766 20.0752 17.8104 20.0752 16.8702C20.0752 15.9108 19.309 15.1445 18.3495 15.1445ZM29 3.23846V25.9044C29 27.6108 27.6155 28.9953 25.9091 28.9953H3.24316C1.53677 28.9953 0.152344 27.6108 0.152344 25.9044V3.23846C0.152344 1.53207 1.53677 0.147644 3.24316 0.147644H25.9091C27.6155 0.147644 29 1.53207 29 3.23846ZM22.5801 12.292C21.9297 12.292 21.3566 12.5624 20.9316 12.981C19.3798 11.9056 17.2935 11.2166 14.9754 11.1394L16.1795 5.71755L20.0108 6.58041C20.0108 7.52053 20.7771 8.28679 21.7172 8.28679C22.6767 8.28679 23.4429 7.50121 23.4429 6.56109C23.4429 5.62097 22.6767 4.83538 21.7172 4.83538C21.0475 4.83538 20.4745 5.23461 20.1847 5.79482L15.9541 4.8547C15.7416 4.79675 15.5356 4.95129 15.4776 5.16378L14.1576 11.1394C11.8588 11.2359 9.79183 11.9249 8.23998 13.0003C7.82143 12.5624 7.22259 12.292 6.57223 12.292C4.15753 12.292 3.3655 15.5373 5.57415 16.6384C5.49688 16.9862 5.45825 17.3467 5.45825 17.7138C5.45825 21.3519 9.56002 24.3011 14.5955 24.3011C19.6502 24.3011 23.752 21.3519 23.752 17.7138C23.752 17.3467 23.7134 16.9668 23.6168 16.6191C25.7804 15.5116 24.9819 12.292 22.5801 12.292Z" fill="#000120"/>
</svg>
