<svg width="21" height="21" viewBox="0 0 21 21" fill="none" xmlns="http://www.w3.org/2000/svg">
<path d="M16.8237 20.9998C15.9087 20.9998 14.6234 20.6689 12.6987 19.5935C10.3582 18.281 8.54784 17.0693 6.22 14.7476C3.9756 12.5046 2.8834 11.0524 1.35479 8.27076C-0.372108 5.1301 -0.0777291 3.48383 0.251337 2.78022C0.643217 1.93928 1.22166 1.4363 1.96933 0.937076C2.394 0.65884 2.8434 0.420328 3.31184 0.224568C3.35872 0.204411 3.40231 0.185192 3.44122 0.167848C3.67325 0.0633158 4.02482 -0.0946548 4.47014 0.0740972C4.76733 0.185661 5.03264 0.413945 5.44796 0.824106C6.29969 1.66412 7.46361 3.53492 7.89299 4.45368C8.18127 5.07291 8.37206 5.48166 8.37253 5.9401C8.37253 6.47683 8.10252 6.89074 7.77486 7.33747C7.71346 7.42137 7.65252 7.50153 7.59346 7.57934C7.23673 8.0481 7.15845 8.18357 7.21001 8.42545C7.31455 8.91155 8.09409 10.3586 9.3752 11.6369C10.6563 12.9152 12.0616 13.6455 12.5496 13.7496C12.8018 13.8035 12.9401 13.7219 13.4238 13.3525C13.4932 13.2996 13.5645 13.2447 13.639 13.1899C14.1387 12.8182 14.5334 12.5552 15.0575 12.5552H15.0603C15.5164 12.5552 15.9068 12.753 16.5537 13.0793C17.3975 13.5049 19.3245 14.6538 20.1697 15.5065C20.5808 15.9208 20.81 16.1852 20.9221 16.482C21.0908 16.9287 20.9319 17.2788 20.8283 17.5132C20.811 17.5521 20.7917 17.5948 20.7716 17.6421C20.5743 18.1097 20.3343 18.5582 20.0549 18.9818C19.5566 19.7271 19.0517 20.3042 18.2089 20.6965C17.7761 20.9013 17.3025 21.005 16.8237 20.9998Z" fill="#F3CA52"/>
</svg>
