<svg width="26" height="26" viewBox="0 0 26 26" fill="none" xmlns="http://www.w3.org/2000/svg">
<path d="M16.4357 18.1942C16.5924 18.3509 16.5924 18.5888 16.4357 18.7281C15.0138 20.15 10.992 20.1558 9.56429 18.7281C9.40759 18.5888 9.40759 18.3509 9.56429 18.1942C9.70357 18.0549 9.94152 18.0549 10.0808 18.1942C11.1661 19.3085 14.7817 19.3317 15.9134 18.1942C16.0527 18.0607 16.2964 18.0607 16.4357 18.1942ZM11.1371 15.0719C11.1371 14.2071 10.4464 13.5165 9.59911 13.5165C8.73437 13.5165 8.04375 14.2071 8.04375 15.0719C8.04375 15.9192 8.73437 16.6098 9.59911 16.6098C10.4464 16.6098 11.1371 15.9192 11.1371 15.0719ZM16.4009 13.5165C15.5536 13.5165 14.8629 14.2071 14.8629 15.0719C14.8629 15.9192 15.5536 16.6098 16.4009 16.6098C17.2656 16.6098 17.9562 15.9192 17.9562 15.0719C17.9562 14.2071 17.2656 13.5165 16.4009 13.5165ZM26 2.78571V23.2143C26 24.7522 24.7522 26 23.2143 26H2.78571C1.24777 26 0 24.7522 0 23.2143V2.78571C0 1.24777 1.24777 0 2.78571 0H23.2143C24.7522 0 26 1.24777 26 2.78571ZM20.2138 10.9455C19.6277 10.9455 19.1112 11.1893 18.7281 11.5665C17.3295 10.5973 15.4491 9.97634 13.3598 9.9067L14.4451 5.02009L17.8982 5.79777C17.8982 6.64509 18.5888 7.33571 19.4362 7.33571C20.3009 7.33571 20.9915 6.62768 20.9915 5.78036C20.9915 4.93304 20.3009 4.225 19.4362 4.225C18.8326 4.225 18.3161 4.58482 18.0549 5.08973L14.242 4.24241C14.0504 4.19018 13.8647 4.32946 13.8125 4.52098L12.6228 9.9067C10.5509 9.99375 8.68795 10.6147 7.28929 11.5839C6.91205 11.1893 6.37232 10.9455 5.78616 10.9455C3.60982 10.9455 2.89598 13.8705 4.88661 14.8629C4.81696 15.1763 4.78214 15.5013 4.78214 15.8321C4.78214 19.1112 8.47902 21.7692 13.0174 21.7692C17.5732 21.7692 21.2701 19.1112 21.2701 15.8321C21.2701 15.5013 21.2353 15.1589 21.1482 14.8455C23.0982 13.8473 22.3786 10.9455 20.2138 10.9455Z" fill="#0A6847"/>
</svg>
