<svg width="26" height="26" viewBox="0 0 26 26" fill="none" xmlns="http://www.w3.org/2000/svg">
<g clip-path="url(#clip0_217_229)">
<rect width="26" height="26" rx="2" fill="#5DEBD7"/>
<path d="M21.01 16.38C19.78 16.38 18.59 16.18 17.48 15.82C17.3061 15.7611 17.1191 15.7523 16.9405 15.7948C16.7618 15.8372 16.5988 15.9291 16.47 16.06L14.9 18.03C12.07 16.68 9.42 14.13 8.01 11.2L9.96 9.54C10.23 9.26 10.31 8.87 10.2 8.52C9.83 7.41 9.64 6.22 9.64 4.99C9.64 4.45 9.19 4 8.65 4H5.19C4.65 4 4 4.24 4 4.99C4 14.28 11.73 22 21.01 22C21.72 22 22 21.37 22 20.82V17.37C22 16.83 21.55 16.38 21.01 16.38Z" fill="#074173"/>
</g>
<defs>
<clipPath id="clip0_217_229">
<rect width="26" height="26" fill="white"/>
</clipPath>
</defs>
</svg>
