<svg width="100" height="245" viewBox="0 0 100 245" fill="none" xmlns="http://www.w3.org/2000/svg">
<g style="mix-blend-mode:luminosity" opacity="0.5">
<rect x="5.39264" y="0.819824" width="7.62634" height="7.62634" transform="rotate(45 5.39264 0.819824)" fill="#5DEBD7"/>
<rect x="35.1308" y="0.819824" width="7.62634" height="7.62634" transform="rotate(45 35.1308 0.819824)" fill="#5DEBD7"/>
<rect x="64.8691" y="0.819824" width="7.62634" height="7.62634" transform="rotate(45 64.8691 0.819824)" fill="#5DEBD7"/>
<rect x="94.6074" y="0.819824" width="7.62634" height="7.62634" transform="rotate(45 94.6074 0.819824)" fill="#5DEBD7"/>
<rect x="5.39264" y="34.0779" width="7.62634" height="7.62634" transform="rotate(45 5.39264 34.0779)" fill="#5DEBD7"/>
<rect x="35.1308" y="34.0779" width="7.62634" height="7.62634" transform="rotate(45 35.1308 34.0779)" fill="#5DEBD7"/>
<rect x="64.8691" y="34.0779" width="7.62634" height="7.62634" transform="rotate(45 64.8691 34.0779)" fill="#5DEBD7"/>
<rect x="94.6074" y="34.0779" width="7.62634" height="7.62634" transform="rotate(45 94.6074 34.0779)" fill="#5DEBD7"/>
<rect x="5.39264" y="67.3361" width="7.62634" height="7.62634" transform="rotate(45 5.39264 67.3361)" fill="#5DEBD7"/>
<rect x="35.1308" y="67.3361" width="7.62634" height="7.62634" transform="rotate(45 35.1308 67.3361)" fill="#5DEBD7"/>
<rect x="64.8691" y="67.3361" width="7.62634" height="7.62634" transform="rotate(45 64.8691 67.3361)" fill="#5DEBD7"/>
<rect x="94.6074" y="67.3361" width="7.62634" height="7.62634" transform="rotate(45 94.6074 67.3361)" fill="#5DEBD7"/>
<rect x="5.39264" y="100.594" width="7.62634" height="7.62634" transform="rotate(45 5.39264 100.594)" fill="#5DEBD7"/>
<rect x="35.1308" y="100.594" width="7.62634" height="7.62634" transform="rotate(45 35.1308 100.594)" fill="#5DEBD7"/>
<rect x="64.8691" y="100.594" width="7.62634" height="7.62634" transform="rotate(45 64.8691 100.594)" fill="#5DEBD7"/>
<rect x="94.6074" y="100.594" width="7.62634" height="7.62634" transform="rotate(45 94.6074 100.594)" fill="#5DEBD7"/>
<rect x="5.39264" y="133.852" width="7.62634" height="7.62634" transform="rotate(45 5.39264 133.852)" fill="#5DEBD7"/>
<rect x="35.1308" y="133.852" width="7.62634" height="7.62634" transform="rotate(45 35.1308 133.852)" fill="#5DEBD7"/>
<rect x="64.8691" y="133.852" width="7.62634" height="7.62634" transform="rotate(45 64.8691 133.852)" fill="#5DEBD7"/>
<rect x="94.6074" y="133.852" width="7.62634" height="7.62634" transform="rotate(45 94.6074 133.852)" fill="#5DEBD7"/>
<rect x="5.39264" y="167.11" width="7.62634" height="7.62634" transform="rotate(45 5.39264 167.11)" fill="#5DEBD7"/>
<rect x="35.1308" y="167.11" width="7.62634" height="7.62634" transform="rotate(45 35.1308 167.11)" fill="#5DEBD7"/>
<rect x="64.8691" y="167.11" width="7.62634" height="7.62634" transform="rotate(45 64.8691 167.11)" fill="#5DEBD7"/>
<rect x="94.6074" y="167.11" width="7.62634" height="7.62634" transform="rotate(45 94.6074 167.11)" fill="#5DEBD7"/>
<rect x="5.39264" y="200.368" width="7.62634" height="7.62634" transform="rotate(45 5.39264 200.368)" fill="#5DEBD7"/>
<rect x="35.1308" y="200.368" width="7.62634" height="7.62634" transform="rotate(45 35.1308 200.368)" fill="#5DEBD7"/>
<rect x="64.8691" y="200.368" width="7.62634" height="7.62634" transform="rotate(45 64.8691 200.368)" fill="#5DEBD7"/>
<rect x="94.6074" y="200.368" width="7.62634" height="7.62634" transform="rotate(45 94.6074 200.368)" fill="#5DEBD7"/>
<rect x="5.39264" y="233.626" width="7.62634" height="7.62634" transform="rotate(45 5.39264 233.626)" fill="#5DEBD7"/>
<rect x="35.1308" y="233.626" width="7.62634" height="7.62634" transform="rotate(45 35.1308 233.626)" fill="#5DEBD7"/>
<rect x="64.8691" y="233.626" width="7.62634" height="7.62634" transform="rotate(45 64.8691 233.626)" fill="#5DEBD7"/>
<rect x="94.6074" y="233.626" width="7.62634" height="7.62634" transform="rotate(45 94.6074 233.626)" fill="#5DEBD7"/>
</g>
</svg>
