<svg width="26" height="26" viewBox="0 0 26 26" fill="none" xmlns="http://www.w3.org/2000/svg">
<rect width="26" height="26" rx="2" fill="#5DEBD7"/>
<path fill-rule="evenodd" clip-rule="evenodd" d="M9.28955 4.054C10.2493 4.00982 10.5553 4 13 4C15.4447 4 15.7507 4.01064 16.7096 4.054C17.6685 4.09736 18.3231 4.25036 18.8958 4.47209C19.4955 4.69873 20.0396 5.053 20.4896 5.51118C20.9478 5.96036 21.3013 6.50364 21.5271 7.10418C21.7496 7.67691 21.9018 8.33145 21.946 9.28873C21.9902 10.2501 22 10.5561 22 13C22 15.4447 21.9894 15.7507 21.946 16.7105C21.9026 17.6677 21.7496 18.3223 21.5271 18.895C21.3013 19.4956 20.9472 20.0398 20.4896 20.4896C20.0396 20.9478 19.4955 21.3013 18.8958 21.5271C18.3231 21.7496 17.6685 21.9018 16.7113 21.946C15.7507 21.9902 15.4447 22 13 22C10.5553 22 10.2493 21.9894 9.28955 21.946C8.33227 21.9026 7.67773 21.7496 7.105 21.5271C6.50439 21.3012 5.96022 20.9472 5.51036 20.4896C5.05249 20.0402 4.69817 19.4963 4.47209 18.8958C4.25036 18.3231 4.09818 17.6685 4.054 16.7113C4.00982 15.7499 4 15.4439 4 13C4 10.5553 4.01064 10.2493 4.054 9.29036C4.09736 8.33145 4.25036 7.67691 4.47209 7.10418C4.6985 6.5037 5.0531 5.9598 5.51118 5.51036C5.9604 5.05259 6.50402 4.69827 7.10418 4.47209C7.67691 4.25036 8.33227 4.09818 9.28955 4.054ZM16.636 5.674C15.6869 5.63064 15.4022 5.62164 12.9992 5.62164C10.5962 5.62164 10.3115 5.63064 9.36236 5.674C8.48445 5.71409 8.00827 5.86055 7.69082 5.98409C7.27109 6.14773 6.97082 6.34164 6.65582 6.65664C6.35722 6.94713 6.12742 7.30078 5.98327 7.69164C5.85973 8.00909 5.71327 8.48527 5.67318 9.36318C5.62982 10.3123 5.62082 10.597 5.62082 13C5.62082 15.403 5.62982 15.6877 5.67318 16.6368C5.71327 17.5147 5.85973 17.9909 5.98327 18.3084C6.12727 18.6986 6.35718 19.0529 6.65582 19.3434C6.94627 19.642 7.30055 19.8719 7.69082 20.0159C8.00827 20.1395 8.48445 20.2859 9.36236 20.326C10.3115 20.3694 10.5954 20.3784 12.9992 20.3784C15.403 20.3784 15.6869 20.3694 16.636 20.326C17.5139 20.2859 17.9901 20.1395 18.3075 20.0159C18.7273 19.8523 19.0275 19.6584 19.3425 19.3434C19.6412 19.0529 19.8711 18.6986 20.0151 18.3084C20.1386 17.9909 20.2851 17.5147 20.3252 16.6368C20.3685 15.6877 20.3775 15.403 20.3775 13C20.3775 10.597 20.3685 10.3123 20.3252 9.36318C20.2851 8.48527 20.1386 8.00909 20.0151 7.69164C19.8515 7.27191 19.6575 6.97164 19.3425 6.65664C19.052 6.35806 18.6984 6.12826 18.3075 5.98409C17.9901 5.86055 17.5139 5.71409 16.636 5.674ZM11.8496 15.7745C12.4916 16.0417 13.2065 16.0778 13.8721 15.8765C14.5378 15.6752 15.1129 15.2491 15.4992 14.6709C15.8856 14.0927 16.0592 13.3983 15.9905 12.7064C15.9218 12.0144 15.6149 11.3677 15.1224 10.8768C14.8084 10.563 14.4287 10.3228 14.0107 10.1733C13.5927 10.0238 13.1468 9.96893 12.705 10.0125C12.2633 10.0561 11.8367 10.1971 11.4559 10.4253C11.0752 10.6535 10.7498 10.9633 10.5032 11.3324C10.2565 11.7015 10.0948 12.1207 10.0296 12.5598C9.96442 12.9989 9.9974 13.447 10.1262 13.8718C10.2549 14.2966 10.4763 14.6876 10.7743 15.0166C11.0723 15.3456 11.4396 15.6044 11.8496 15.7745ZM9.72891 9.72891C10.1585 9.29934 10.6684 8.95859 11.2297 8.72611C11.791 8.49363 12.3925 8.37398 13 8.37398C13.6075 8.37398 14.209 8.49363 14.7703 8.72611C15.3316 8.95859 15.8415 9.29934 16.2711 9.72891C16.7007 10.1585 17.0414 10.6684 17.2739 11.2297C17.5064 11.791 17.626 12.3925 17.626 13C17.626 13.6075 17.5064 14.209 17.2739 14.7703C17.0414 15.3316 16.7007 15.8415 16.2711 16.2711C15.4035 17.1386 14.2269 17.626 13 17.626C11.7731 17.626 10.5965 17.1386 9.72891 16.2711C8.86136 15.4035 8.37398 14.2269 8.37398 13C8.37398 11.7731 8.86136 10.5965 9.72891 9.72891ZM18.652 9.06291C18.7584 8.96249 18.8437 8.84174 18.9026 8.7078C18.9616 8.57385 18.993 8.42945 18.9952 8.28312C18.9973 8.1368 18.97 7.99154 18.915 7.85594C18.86 7.72033 18.7784 7.59715 18.6749 7.49367C18.5714 7.39019 18.4482 7.30853 18.3126 7.25351C18.177 7.1985 18.0317 7.17125 17.8854 7.17339C17.7391 7.17552 17.5947 7.20699 17.4607 7.26593C17.3268 7.32488 17.2061 7.4101 17.1056 7.51655C16.9103 7.72357 16.8034 7.99855 16.8076 8.28312C16.8117 8.5677 16.9266 8.83945 17.1279 9.04069C17.3291 9.24193 17.6008 9.35682 17.8854 9.36097C18.17 9.36512 18.445 9.2582 18.652 9.06291Z" fill="#074173"/>
</svg>
