<svg width="70" height="70" viewBox="0 0 70 70" fill="none" xmlns="http://www.w3.org/2000/svg">
<rect width="70" height="70" rx="10" fill="#E7272D"/>
<path d="M40.8543 27.8747C40.8543 31.384 38.0094 34.2288 34.5002 34.2288C30.9909 34.2288 28.146 31.384 28.146 27.8747C28.146 24.3654 30.9909 21.5205 34.5002 21.5205C38.0094 21.5205 40.8543 24.3654 40.8543 27.8747Z" stroke="white" stroke-width="2.69118"/>
<path d="M50.3146 48.208C53.8589 53.2621 55.5545 55.9537 54.5447 58.1203C54.4433 58.3376 54.3246 58.5473 54.1899 58.7475C52.7297 60.9163 48.9556 60.9163 41.4076 60.9163H27.5922C20.0441 60.9163 16.2701 60.9163 14.8098 58.7475C14.675 58.5473 14.5564 58.3376 14.4551 58.1203C13.4451 55.9537 15.1406 53.2621 18.685 48.208" stroke="white" stroke-width="2.69118" stroke-linecap="round" stroke-linejoin="round"/>
<path d="M37.6961 49.4626C36.8387 50.2881 35.693 50.7497 34.5007 50.7497C33.3081 50.7497 32.1623 50.2881 31.305 49.4626C23.4548 41.8559 12.9346 33.3583 18.065 21.0217C20.839 14.3513 27.4977 10.083 34.5007 10.083C41.5035 10.083 48.1621 14.3513 50.9361 21.0217C56.0601 33.3428 45.5656 41.8821 37.6961 49.4626Z" stroke="white" stroke-width="2.69118"/>
</svg>
