<svg width="29" height="29" viewBox="0 0 29 29" fill="none" xmlns="http://www.w3.org/2000/svg">
<rect x="0.0380859" width="28.8476" height="29" rx="2.85714" fill="white"/>
<path fill-rule="evenodd" clip-rule="evenodd" d="M10.3454 4.52178C11.4103 4.4725 11.7498 4.46155 14.4623 4.46155C17.1748 4.46155 17.5143 4.47341 18.5782 4.52178C19.6421 4.57015 20.3684 4.7408 21.0038 4.98811C21.6692 5.2409 22.2729 5.63605 22.7722 6.1471C23.2806 6.64811 23.6727 7.25407 23.9233 7.9239C24.1702 8.56272 24.3391 9.29279 24.3881 10.3605C24.4371 11.4328 24.448 11.7741 24.448 14.5C24.448 17.2268 24.4362 17.5681 24.3881 18.6386C24.34 19.7063 24.1702 20.4364 23.9233 21.0752C23.6727 21.7451 23.2799 22.3521 22.7722 22.8538C22.2729 23.3649 21.6692 23.7591 21.0038 24.011C20.3684 24.2592 19.6421 24.429 18.58 24.4782C17.5143 24.5275 17.1748 24.5385 14.4623 24.5385C11.7498 24.5385 11.4103 24.5266 10.3454 24.4782C9.28332 24.4299 8.55709 24.2592 7.92163 24.011C7.25524 23.7591 6.65147 23.3642 6.15235 22.8538C5.64433 22.3525 5.25119 21.7458 5.00036 21.0761C4.75435 20.4373 4.5855 19.7072 4.53648 18.6395C4.48746 17.5672 4.47656 17.2259 4.47656 14.5C4.47656 11.7732 4.48836 11.4319 4.53648 10.3623C4.58459 9.29279 4.75435 8.56272 5.00036 7.9239C5.25157 7.25414 5.645 6.64748 6.15325 6.14618C6.65167 5.63559 7.25484 5.24039 7.92073 4.98811C8.55618 4.7408 9.28332 4.57106 10.3454 4.52178ZM18.4965 6.3287C17.4435 6.28033 17.1276 6.2703 14.4614 6.2703C11.7952 6.2703 11.4793 6.28033 10.4262 6.3287C9.45217 6.37342 8.92384 6.53677 8.57161 6.67457C8.10592 6.85709 7.77276 7.07337 7.42326 7.42472C7.09195 7.74873 6.83699 8.14318 6.67705 8.57914C6.53997 8.93323 6.37748 9.46435 6.333 10.4436C6.28488 11.5022 6.2749 11.8197 6.2749 14.5C6.2749 17.1803 6.28488 17.4979 6.333 18.5565C6.37748 19.5357 6.53997 20.0668 6.67705 20.4209C6.83682 20.8562 7.09191 21.2513 7.42326 21.5753C7.74552 21.9084 8.1386 22.1648 8.57161 22.3254C8.92384 22.4632 9.45217 22.6266 10.4262 22.6713C11.4793 22.7197 11.7943 22.7297 14.4614 22.7297C17.1285 22.7297 17.4435 22.7197 18.4965 22.6713C19.4706 22.6266 19.9989 22.4632 20.3511 22.3254C20.8168 22.1429 21.15 21.9266 21.4995 21.5753C21.8308 21.2513 22.0859 20.8562 22.2457 20.4209C22.3828 20.0668 22.5453 19.5357 22.5897 18.5565C22.6379 17.4979 22.6478 17.1803 22.6478 14.5C22.6478 11.8197 22.6379 11.5022 22.5897 10.4436C22.5453 9.46435 22.3828 8.93323 22.2457 8.57914C22.0641 8.11099 21.849 7.77607 21.4995 7.42472C21.1771 7.09169 20.7848 6.83538 20.3511 6.67457C19.9989 6.53677 19.4706 6.37342 18.4965 6.3287ZM13.1859 17.5946C13.8982 17.8927 14.6914 17.9329 15.4299 17.7084C16.1685 17.4839 16.8066 17.0086 17.2352 16.3637C17.6639 15.7188 17.8566 14.9443 17.7803 14.1725C17.704 13.4007 17.3636 12.6794 16.8171 12.1318C16.4687 11.7818 16.0475 11.5139 15.5837 11.3472C15.1199 11.1805 14.6252 11.1192 14.135 11.1678C13.6449 11.2164 13.1715 11.3736 12.7491 11.6282C12.3267 11.8828 11.9656 12.2283 11.692 12.64C11.4183 13.0517 11.2389 13.5192 11.1666 14.009C11.0942 14.4988 11.1308 14.9985 11.2737 15.4724C11.4166 15.9462 11.6622 16.3823 11.9928 16.7493C12.3235 17.1162 12.731 17.4049 13.1859 17.5946ZM10.8329 10.8515C11.3095 10.3724 11.8754 9.99229 12.4981 9.73298C13.1208 9.47368 13.7882 9.34022 14.4623 9.34022C15.1363 9.34022 15.8037 9.47368 16.4265 9.73298C17.0492 9.99229 17.615 10.3724 18.0916 10.8515C18.5682 11.3306 18.9463 11.8994 19.2043 12.5254C19.4622 13.1515 19.595 13.8224 19.595 14.5C19.595 15.1776 19.4622 15.8486 19.2043 16.4746C18.9463 17.1006 18.5682 17.6694 18.0916 18.1485C17.1291 19.1162 15.8235 19.6598 14.4623 19.6598C13.101 19.6598 11.7955 19.1162 10.8329 18.1485C9.87036 17.1809 9.3296 15.8685 9.3296 14.5C9.3296 13.1315 9.87036 11.8191 10.8329 10.8515ZM20.7333 10.1086C20.8514 9.99664 20.946 9.86195 21.0114 9.71255C21.0768 9.56316 21.1117 9.40209 21.114 9.23888C21.1164 9.07567 21.0862 8.91365 21.0251 8.7624C20.9641 8.61115 20.8735 8.47375 20.7587 8.35833C20.6439 8.24292 20.5072 8.15183 20.3567 8.09047C20.2063 8.02911 20.0451 7.99871 19.8828 8.00109C19.7204 8.00347 19.5602 8.03857 19.4116 8.10432C19.263 8.17006 19.129 8.26512 19.0176 8.38385C18.8009 8.61476 18.6823 8.92147 18.6869 9.23888C18.6915 9.55628 18.8189 9.85939 19.0422 10.0839C19.2655 10.3083 19.567 10.4365 19.8828 10.4411C20.1985 10.4457 20.5036 10.3265 20.7333 10.1086Z" fill="#841C0F"/>
</svg>
