<svg width="45" height="45" viewBox="0 0 45 45" fill="none" xmlns="http://www.w3.org/2000/svg">
<rect x="0.199219" y="0.957031" width="44.2" height="44.0429" rx="5.92275" fill="white"/>
<path fill-rule="evenodd" clip-rule="evenodd" d="M15.9917 7.82438C17.6233 7.74954 18.1435 7.73291 22.2995 7.73291C26.4556 7.73291 26.9758 7.75093 28.6059 7.82438C30.236 7.89784 31.3488 8.15702 32.3224 8.53261C33.3419 8.91652 34.2669 9.51665 35.0319 10.2928C35.8108 11.0537 36.4117 11.974 36.7956 12.9913C37.1739 13.9614 37.4326 15.0702 37.5077 16.6918C37.5828 18.3203 37.5995 18.8386 37.5995 22.9785C37.5995 27.1198 37.5814 27.6381 37.5077 29.2639C37.434 30.8855 37.1739 31.9942 36.7956 32.9644C36.4117 33.9818 35.8098 34.9036 35.0319 35.6656C34.2669 36.4418 33.3419 37.0405 32.3224 37.4231C31.3488 37.8 30.236 38.0578 28.6087 38.1327C26.9758 38.2075 26.4556 38.2241 22.2995 38.2241C18.1435 38.2241 17.6233 38.2061 15.9917 38.1327C14.3644 38.0592 13.2516 37.8 12.278 37.4231C11.257 37.0405 10.3319 36.4408 9.56713 35.6656C8.78875 34.9043 8.1864 33.9829 7.80207 32.9658C7.42513 31.9956 7.16642 30.8868 7.09131 29.2653C7.0162 27.6368 6.99951 27.1184 6.99951 22.9785C6.99951 18.8373 7.01759 18.3189 7.09131 16.6946C7.16503 15.0702 7.42513 13.9614 7.80207 12.9913C8.18696 11.9741 8.78978 11.0527 9.56852 10.2914C10.3322 9.51596 11.2564 8.91575 12.2766 8.53261C13.2503 8.15702 14.3644 7.89923 15.9917 7.82438ZM28.4807 10.5686C26.8673 10.4951 26.3832 10.4799 22.2981 10.4799C18.213 10.4799 17.729 10.4951 16.1155 10.5686C14.6231 10.6365 13.8136 10.8846 13.2739 11.0939C12.5604 11.3711 12.0499 11.6995 11.5144 12.2331C11.0068 12.7252 10.6161 13.3243 10.3711 13.9864C10.161 14.5241 9.91208 15.3308 9.84392 16.8179C9.7702 18.4256 9.7549 18.9079 9.7549 22.9785C9.7549 27.0491 9.7702 27.5314 9.84392 29.1391C9.91208 30.6263 10.161 31.4329 10.3711 31.9707C10.6159 32.6318 11.0067 33.2319 11.5144 33.7239C12.0082 34.2298 12.6104 34.6192 13.2739 34.8632C13.8136 35.0725 14.6231 35.3205 16.1155 35.3885C17.729 35.4619 18.2116 35.4772 22.2981 35.4772C26.3846 35.4772 26.8673 35.4619 28.4807 35.3885C29.9732 35.3205 30.7827 35.0725 31.3223 34.8632C32.0359 34.586 32.5463 34.2575 33.0818 33.7239C33.5895 33.2319 33.9804 32.6318 34.2252 31.9707C34.4352 31.4329 34.6842 30.6263 34.7523 29.1391C34.826 27.5314 34.8413 27.0491 34.8413 22.9785C34.8413 18.9079 34.826 18.4256 34.7523 16.8179C34.6842 15.3308 34.4352 14.5241 34.2252 13.9864C33.947 13.2754 33.6173 12.7667 33.0818 12.2331C32.588 11.7274 31.9868 11.3381 31.3223 11.0939C30.7827 10.8846 29.9732 10.6365 28.4807 10.5686ZM20.3439 27.6783C21.4353 28.131 22.6505 28.1921 23.7821 27.8512C24.9137 27.5103 25.8914 26.7884 26.5482 25.809C27.205 24.8296 27.5002 23.6533 27.3834 22.4811C27.2665 21.3089 26.7449 20.2135 25.9075 19.3819C25.3738 18.8504 24.7283 18.4434 24.0178 18.1902C23.3072 17.9371 22.5491 17.844 21.7981 17.9178C21.0471 17.9916 20.3219 18.2305 19.6746 18.6171C19.0273 19.0037 18.4742 19.5285 18.0549 20.1537C17.6356 20.7789 17.3607 21.489 17.2498 22.2328C17.139 22.9766 17.1951 23.7357 17.414 24.4553C17.6329 25.1749 18.0092 25.8372 18.5159 26.3945C19.0225 26.9519 19.6468 27.3903 20.3439 27.6783ZM16.7387 17.4374C17.4689 16.7098 18.3359 16.1326 19.29 15.7387C20.2441 15.3449 21.2668 15.1422 22.2995 15.1422C23.3323 15.1422 24.3549 15.3449 25.309 15.7387C26.2632 16.1326 27.1301 16.7098 27.8604 17.4374C28.5906 18.1651 29.1699 19.029 29.5651 19.9797C29.9603 20.9305 30.1638 21.9494 30.1638 22.9785C30.1638 24.0076 29.9603 25.0266 29.5651 25.9773C29.1699 26.9281 28.5906 27.7919 27.8604 28.5196C26.3855 29.9892 24.3852 30.8148 22.2995 30.8148C20.2138 30.8148 18.2135 29.9892 16.7387 28.5196C15.2638 27.05 14.4353 25.0568 14.4353 22.9785C14.4353 20.9002 15.2638 18.907 16.7387 17.4374ZM31.9079 16.3093C32.0889 16.1392 32.2338 15.9346 32.334 15.7077C32.4342 15.4808 32.4877 15.2362 32.4913 14.9883C32.4949 14.7405 32.4486 14.4944 32.3551 14.2647C32.2615 14.035 32.1227 13.8263 31.9468 13.651C31.7709 13.4757 31.5615 13.3374 31.331 13.2442C31.1004 13.151 30.8535 13.1049 30.6047 13.1085C30.356 13.1121 30.1105 13.1654 29.8828 13.2653C29.6551 13.3651 29.4498 13.5095 29.2791 13.6898C28.9471 14.0405 28.7653 14.5063 28.7724 14.9883C28.7794 15.4704 28.9748 15.9307 29.3169 16.2716C29.659 16.6125 30.121 16.8071 30.6047 16.8142C31.0885 16.8212 31.556 16.6401 31.9079 16.3093Z" fill="#FF0000"/>
</svg>
