<svg width="29" height="29" viewBox="0 0 29 29" fill="none" xmlns="http://www.w3.org/2000/svg">
<rect x="0.0375977" width="28.8476" height="29" rx="2.85714" fill="#E7272D"/>
<path fill-rule="evenodd" clip-rule="evenodd" d="M10.345 4.52178C11.4098 4.4725 11.7493 4.46155 14.4618 4.46155C17.1743 4.46155 17.5138 4.47341 18.5777 4.52178C19.6417 4.57015 20.3679 4.7408 21.0033 4.98811C21.6687 5.2409 22.2724 5.63605 22.7717 6.1471C23.2801 6.64811 23.6722 7.25407 23.9228 7.9239C24.1697 8.56272 24.3386 9.29279 24.3876 10.3605C24.4366 11.4328 24.4475 11.7741 24.4475 14.5C24.4475 17.2268 24.4357 17.5681 24.3876 18.6386C24.3395 19.7063 24.1697 20.4364 23.9228 21.0752C23.6722 21.7451 23.2794 22.3521 22.7717 22.8538C22.2724 23.3649 21.6687 23.7591 21.0033 24.011C20.3679 24.2592 19.6416 24.429 18.5795 24.4782C17.5138 24.5275 17.1743 24.5385 14.4618 24.5385C11.7493 24.5385 11.4098 24.5266 10.345 24.4782C9.28283 24.4299 8.5566 24.2592 7.92115 24.011C7.25475 23.7591 6.65098 23.3642 6.15186 22.8538C5.64384 22.3525 5.25071 21.7458 4.99987 21.0761C4.75386 20.4373 4.58501 19.7072 4.53599 18.6395C4.48697 17.5672 4.47607 17.2259 4.47607 14.5C4.47607 11.7732 4.48788 11.4319 4.53599 10.3623C4.5841 9.29279 4.75386 8.56272 4.99987 7.9239C5.25108 7.25414 5.64451 6.64748 6.15277 6.14618C6.65118 5.63559 7.25435 5.24039 7.92024 4.98811C8.55569 4.7408 9.28283 4.57106 10.345 4.52178ZM18.496 6.3287C17.443 6.28033 17.1271 6.2703 14.4609 6.2703C11.7947 6.2703 11.4788 6.28033 10.4257 6.3287C9.45168 6.37342 8.92335 6.53677 8.57112 6.67457C8.10543 6.85709 7.77227 7.07337 7.42277 7.42472C7.09146 7.74873 6.8365 8.14318 6.67656 8.57914C6.53949 8.93323 6.37699 9.46435 6.33251 10.4436C6.2844 11.5022 6.27441 11.8197 6.27441 14.5C6.27441 17.1803 6.2844 17.4979 6.33251 18.5565C6.37699 19.5357 6.53949 20.0668 6.67656 20.4209C6.83633 20.8562 7.09142 21.2513 7.42277 21.5753C7.74503 21.9084 8.13811 22.1648 8.57112 22.3254C8.92335 22.4632 9.45168 22.6266 10.4257 22.6713C11.4788 22.7197 11.7938 22.7297 14.4609 22.7297C17.128 22.7297 17.443 22.7197 18.496 22.6713C19.4701 22.6266 19.9984 22.4632 20.3506 22.3254C20.8163 22.1429 21.1495 21.9266 21.499 21.5753C21.8303 21.2513 22.0854 20.8562 22.2452 20.4209C22.3823 20.0668 22.5448 19.5357 22.5893 18.5565C22.6374 17.4979 22.6474 17.1803 22.6474 14.5C22.6474 11.8197 22.6374 11.5022 22.5893 10.4436C22.5448 9.46435 22.3823 8.93323 22.2452 8.57914C22.0636 8.11099 21.8485 7.77607 21.499 7.42472C21.1767 7.09169 20.7843 6.83538 20.3506 6.67457C19.9984 6.53677 19.4701 6.37342 18.496 6.3287ZM13.1854 17.5946C13.8977 17.8927 14.6909 17.9329 15.4294 17.7084C16.168 17.4839 16.8061 17.0086 17.2347 16.3637C17.6634 15.7188 17.8561 14.9443 17.7798 14.1725C17.7035 13.4007 17.3631 12.6794 16.8166 12.1318C16.4682 11.7818 16.047 11.5139 15.5832 11.3472C15.1194 11.1805 14.6247 11.1192 14.1345 11.1678C13.6444 11.2164 13.171 11.3736 12.7486 11.6282C12.3262 11.8828 11.9651 12.2283 11.6915 12.64C11.4178 13.0517 11.2384 13.5192 11.1661 14.009C11.0937 14.4988 11.1303 14.9985 11.2732 15.4724C11.4161 15.9462 11.6617 16.3823 11.9923 16.7493C12.323 17.1162 12.7305 17.4049 13.1854 17.5946ZM10.8324 10.8515C11.309 10.3724 11.8749 9.99229 12.4976 9.73298C13.1203 9.47368 13.7878 9.34022 14.4618 9.34022C15.1358 9.34022 15.8033 9.47368 16.426 9.73298C17.0487 9.99229 17.6145 10.3724 18.0911 10.8515C18.5678 11.3306 18.9458 11.8994 19.2038 12.5254C19.4617 13.1515 19.5945 13.8224 19.5945 14.5C19.5945 15.1776 19.4617 15.8486 19.2038 16.4746C18.9458 17.1006 18.5678 17.6694 18.0911 18.1485C17.1286 19.1162 15.8231 19.6598 14.4618 19.6598C13.1005 19.6598 11.795 19.1162 10.8324 18.1485C9.86987 17.1809 9.32911 15.8685 9.32911 14.5C9.32911 13.1315 9.86987 11.8191 10.8324 10.8515ZM20.7328 10.1086C20.8509 9.99664 20.9455 9.86195 21.0109 9.71255C21.0763 9.56316 21.1112 9.40209 21.1136 9.23888C21.1159 9.07567 21.0857 8.91365 21.0247 8.7624C20.9636 8.61115 20.873 8.47375 20.7582 8.35833C20.6434 8.24292 20.5067 8.15183 20.3563 8.09047C20.2058 8.02911 20.0446 7.99871 19.8823 8.00109C19.7199 8.00347 19.5597 8.03857 19.4111 8.10432C19.2625 8.17006 19.1285 8.26512 19.0171 8.38385C18.8004 8.61476 18.6818 8.92147 18.6864 9.23888C18.691 9.55628 18.8185 9.85939 19.0417 10.0839C19.265 10.3083 19.5665 10.4365 19.8823 10.4411C20.198 10.4457 20.5031 10.3265 20.7328 10.1086Z" fill="white"/>
</svg>
