<svg width="41" height="34" viewBox="0 0 41 34" fill="none" xmlns="http://www.w3.org/2000/svg">
<rect width="41" height="33" transform="translate(0 0.75)" fill="#074173"/>
<path d="M26.365 14.8122C28.0802 15.7399 31.3839 15.4559 33.8957 12.9203C36.3869 10.4063 37.3289 6.73012 34.9735 4.27438L34.9754 4.27341C34.9642 4.26305 34.9241 4.22267 34.9139 4.21182C34.9139 4.21182 34.9139 4.21279 34.912 4.21279C32.4804 1.83661 28.8385 2.78676 26.3463 5.30077C23.8345 7.83639 23.5532 11.1708 24.4718 12.9019C24.2352 14.3194 22.3084 15.8574 20.5802 16.8555C19.2474 16.0257 17.5667 14.5592 17.3901 11.6108C17.5178 10.4331 17.1335 9.20925 16.2405 8.30791C16.1585 8.22519 15.9228 8.02391 15.9228 8.02391L9.41229 2.90622L8.81922 3.50431L15.8836 10.1933L15.1174 10.9667L8.27331 4.05854L7.64488 4.69232L14.488 11.6009L13.841 12.2539L6.99785 5.34731L6.42531 5.91999L13.2274 12.7858L12.4481 13.5752L5.83882 6.51331L5.18994 7.17015L10.5926 14.0411C10.5926 14.0411 10.7213 14.1741 10.7757 14.223C11.562 14.9165 12.5491 15.2438 13.526 15.2161C13.533 15.2161 13.5432 15.2179 13.5469 15.2189C16.1192 15.2448 17.7087 16.8232 18.7084 18.1848C16.2624 20.6549 8.67112 28.3176 8.67112 28.3176L8.67296 28.3195C8.6655 28.3251 8.65572 28.3317 8.64826 28.3392C8.0301 28.9626 8.0301 29.9745 8.64826 30.5998C8.67994 30.6308 8.79918 30.7503 8.82949 30.7823C9.44765 31.4066 10.4516 31.4066 11.0688 30.7832C11.0763 30.7757 11.0828 30.7663 11.0888 30.7579L11.0907 30.7606C11.0907 30.7606 18.1402 23.6452 20.843 20.9183C23.4153 23.5135 30.5454 30.708 30.5454 30.708L30.5473 30.7062C30.5528 30.7128 30.5556 30.7221 30.565 30.7316C31.1724 31.3437 32.1638 31.3437 32.7721 30.7297C33.3805 30.1147 33.3823 29.118 32.773 28.5021C32.7637 28.4936 32.7544 28.4908 32.747 28.4824L32.7487 28.4805C32.7487 28.4805 24.8734 20.5329 22.6886 18.3259C23.6752 16.7027 25.0709 15.0322 26.365 14.8122ZM25.5283 10.0645C25.5656 9.64273 25.6494 9.15754 25.7882 8.6441C25.8618 8.38884 25.9484 8.12597 26.0538 7.86035C26.1702 7.59052 26.2924 7.33938 26.4712 7.0766C26.8131 6.57214 27.2295 6.17994 27.6442 5.85087C28.0541 5.51751 28.4706 5.25844 28.8404 5.06194C29.2075 4.86163 29.5364 4.7319 29.7711 4.6576C30.0096 4.57861 30.1484 4.56825 30.1484 4.56825C30.1484 4.56825 30.0338 4.65574 29.8625 4.81744C29.6892 4.98012 29.4423 5.21337 29.1451 5.49258C28.5749 6.05401 27.7625 6.78273 27.1867 7.57538C27.0479 7.75643 26.924 7.99526 26.8159 8.21386C26.6985 8.43724 26.5941 8.66806 26.4992 8.89653C26.3016 9.35072 26.1386 9.79075 25.9979 10.1702C25.861 10.5506 25.7538 10.8722 25.6905 11.1007C25.6215 11.3297 25.6308 11.4656 25.6421 11.4656C25.6365 11.4741 25.5517 11.3424 25.5266 11.0899C25.4957 10.8402 25.4892 10.4852 25.5283 10.0645Z" fill="white"/>
</svg>
